<svg width="26" height="18" viewBox="0 0 26 18" fill="none" xmlns="http://www.w3.org/2000/svg">
<path d="M10.5625 2.76545V4.14818H25.9858C25.9643 3.70227 25.9179 3.13855 25.7522 2.76545" fill="#EC1C24"/>
<path d="M25.025 1.38273H10.5625V2.76545H25.7522C25.5872 2.24959 25.3419 1.77914 25.025 1.38273Z" fill="#E6E7E8"/>
<path d="M21.9375 0H10.5625V1.38273H25.025C24.347 0.527727 23.231 0 21.9375 0Z" fill="#EC1C24"/>
<path d="M25.9858 4.14818H10.5625V5.53091H26V4.60923C26 4.527 25.9947 4.44682 25.9923 4.36623C25.9907 4.34414 25.9882 4.28727 25.9858 4.14818Z" fill="#E6E7E8"/>
<path d="M10.5625 6.91364H26V5.53091H10.5625V6.91364Z" fill="#EC1C24"/>
<path d="M10.5625 8.29636H26V6.91364H10.5625V8.29636Z" fill="#E6E7E8"/>
<path d="M10.5625 8.29636H26V9.67909H10.5625V8.29636Z" fill="#EC1C24"/>
<path d="M0 9.67909V11.0618H26V9.67909H10.5625H0Z" fill="#E6E7E8"/>
<path d="M0 11.0618H26V12.4445H0V11.0618Z" fill="#EC1C24"/>
<path d="M0.00203125 13.295C0.00203125 13.295 -0.001625 13.6301 0.008125 13.8273H25.9919C26.0033 13.6252 25.998 13.295 25.998 13.295L26 12.4445H0L0.00203125 13.295Z" fill="#E6E7E8"/>
<path d="M4.0625 18H21.9375C23.2347 18 24.3128 17.5255 25.0494 16.5927H0.946562C1.70706 17.5459 2.80556 18 4.06047 18" fill="#EC1C24"/>
<path d="M0.948594 16.5927H25.0514C25.3727 16.1816 25.6126 15.7122 25.7583 15.21H0.245781C0.394423 15.7106 0.633357 16.1793 0.950625 16.5927" fill="#E6E7E8"/>
<path d="M0.24375 15.21H25.7563C25.8892 14.7602 25.9683 14.296 25.9919 13.8273H0.008125C0.0483437 14.3002 0.0857188 14.6573 0.24375 15.21Z" fill="#EC1C24"/>
<path d="M10.5625 0H4.0625C1.37028 0 0 2.01477 0 4.5V9.67909H10.5625V0Z" fill="#176496"/>
<path d="M1.13669 2.44473L1.35769 2.27373L1.57828 2.44473L1.49256 2.16982L1.71234 2.00168H1.44097L1.35687 1.72555L1.27319 2.00168H1.00222L1.22281 2.16982L1.13669 2.44473ZM2.59675 2.44473L2.81775 2.27373L3.03834 2.44473L2.95303 2.16982L3.17241 2.00168H2.90144L2.81734 1.72555L2.73366 2.00168H2.46187L2.68247 2.16982L2.59675 2.44473ZM4.20753 2.44473L4.42812 2.27373L4.64913 2.44473L4.56341 2.16982L4.78278 2.00168H4.51344L4.42812 1.72555L4.34403 2.00168H4.07469L4.29284 2.16982L4.20753 2.44473ZM5.80653 2.44473L6.02713 2.27373L6.24812 2.44473L6.16281 2.16982L6.38219 2.00168H6.11L6.02713 1.72555L5.94344 2.00168H5.67206L5.89225 2.16982L5.80653 2.44473ZM7.41122 2.44473L7.63222 2.27373L7.85281 2.44473L7.7675 2.16982L7.98728 2.00168H7.7155L7.63181 1.72555L7.54812 2.00168H7.27716L7.49653 2.16982L7.41122 2.44473ZM1.91384 3.16268L2.13444 2.99209L2.35503 3.16268L2.27012 2.88818L2.4895 2.72005H2.21813L2.13403 2.44432L2.05156 2.72005H1.77938L1.99916 2.88818L1.91384 3.16268ZM3.37431 3.16268L3.59491 2.99209L3.8155 3.16268L3.73019 2.88818L3.94956 2.72005H3.67656L3.59491 2.44432L3.51081 2.72005H3.23984L3.45963 2.88818L3.37431 3.16268ZM4.98509 3.16268L5.20528 2.99209L5.42587 3.16268L5.34056 2.88818L5.56034 2.72005H5.28938L5.20528 2.44432L5.12119 2.72005H4.84981L5.06959 2.88818L4.98509 3.16268ZM6.58328 3.16268L6.80428 2.99209L7.02528 3.16268L6.93875 2.88818L7.15894 2.72005H6.88797L6.80387 2.44432L6.72059 2.72005H6.44922L6.669 2.88818L6.58328 3.16268ZM8.19 3.16268L8.40897 2.99209L8.62956 3.16268L8.54344 2.88818L8.76363 2.72005H8.49306L8.40856 2.44432L8.32528 2.72005H8.05391L8.27369 2.88818L8.19 3.16268ZM9.09472 2.44473L9.31531 2.27373L9.53631 2.44473L9.45059 2.16982L9.66997 2.00168H9.40063L9.31491 1.72555L9.23122 2.00168H8.95781L9.18003 2.16982L9.09472 2.44473ZM1.11516 8.19L1.33616 8.02105L1.55675 8.19L1.47144 7.91755L1.69081 7.749L1.41984 7.74982L1.33534 7.47409L1.25247 7.74982L0.980687 7.749L1.20047 7.91755L1.11516 8.19ZM2.57562 8.19L2.79622 8.02105L3.01722 8.19L2.9315 7.91755L3.15088 7.749L2.88031 7.74982L2.79581 7.47409L2.71253 7.74982L2.44156 7.749L2.66094 7.91755L2.57562 8.19ZM4.18641 8.19L4.407 8.02105L4.628 8.19L4.54228 7.91755L4.76166 7.749L4.48906 7.74982L4.40659 7.47409L4.32291 7.74982L4.05194 7.749L4.27172 7.91755L4.18641 8.19ZM5.78541 8.19L6.006 8.02105L6.22659 8.19L6.1425 7.91755L6.36066 7.749L6.08928 7.74982L6.00559 7.47409L5.92191 7.74982L5.65094 7.749L5.87031 7.91755L5.78541 8.19ZM7.38969 8.19L7.61069 8.02105L7.83169 8.19L7.74719 7.91755L7.96534 7.749L7.69438 7.74982L7.61028 7.47409L7.527 7.74982L7.25563 7.749L7.475 7.91755L7.38969 8.19ZM9.07319 8.19L9.29378 8.02105L9.51478 8.19L9.42906 7.91755L9.64884 7.749L9.37625 7.74982L9.29338 7.47409L9.20969 7.74982L8.9375 7.749L9.1585 7.91755L9.07319 8.19ZM1.13669 3.88145L1.35769 3.71045L1.57828 3.88145L1.49256 3.60655L1.71234 3.43841L1.44097 3.43923L1.35687 3.16268L1.27319 3.43923L1.00222 3.43841L1.22281 3.60655L1.13669 3.88145ZM2.59675 3.88145L2.81775 3.71045L3.03834 3.88145L2.95303 3.60655L3.17241 3.43841L2.90144 3.43923L2.81734 3.16268L2.73366 3.43923L2.46187 3.43841L2.68247 3.60655L2.59675 3.88145ZM4.20753 3.88145L4.42812 3.71045L4.64913 3.88145L4.56341 3.60655L4.78278 3.43841L4.51344 3.43923L4.42812 3.16268L4.34403 3.43923L4.07469 3.43841L4.29284 3.60655L4.20753 3.88145ZM5.80653 3.88145L6.02713 3.71045L6.24812 3.88145L6.16281 3.60655L6.38219 3.43841L6.11 3.43923L6.02713 3.16268L5.94344 3.43923L5.67206 3.43841L5.89225 3.60655L5.80653 3.88145ZM7.41122 3.88145L7.63222 3.71045L7.85281 3.88145L7.7675 3.60655L7.98728 3.43841L7.7155 3.43923L7.63181 3.16268L7.54812 3.43923L7.27716 3.43841L7.49653 3.60655L7.41122 3.88145ZM1.91384 4.59982L2.13444 4.42923L2.35503 4.59982L2.27012 4.32532L2.4895 4.15636H2.21813L2.13403 3.88145L2.05156 4.15636H1.77938L1.99916 4.32532L1.91384 4.59982ZM3.37431 4.59982L3.59491 4.42923L3.8155 4.59982L3.73019 4.32532L3.94956 4.15636H3.67656L3.59491 3.88145L3.51081 4.15636H3.23984L3.45963 4.32532L3.37431 4.59982ZM4.98509 4.59982L5.20528 4.42923L5.42587 4.59982L5.34056 4.32532L5.56034 4.15636H5.28938L5.20528 3.88145L5.12119 4.15636H4.84981L5.06959 4.32532L4.98509 4.59982ZM6.58328 4.59982L6.80428 4.42923L7.02528 4.59982L6.93875 4.32532L7.15894 4.15636H6.88797L6.80387 3.88145L6.72059 4.15636H6.44922L6.669 4.32532L6.58328 4.59982ZM8.19 4.59982L8.40897 4.42923L8.62956 4.59982L8.54344 4.32532L8.76363 4.15636H8.49306L8.40856 3.88145L8.32528 4.15636H8.05391L8.27369 4.32532L8.19 4.59982ZM9.09472 3.88145L9.31531 3.71045L9.53631 3.88145L9.45059 3.60655L9.66997 3.43841L9.40063 3.43923L9.31491 3.16268L9.23122 3.43923L8.95781 3.43841L9.18003 3.60655L9.09472 3.88145ZM1.11516 5.31818L1.33616 5.14759L1.55675 5.31818L1.47103 5.04409L1.69081 4.87555L1.41944 4.87636L1.33534 4.59982L1.25247 4.87636L0.980687 4.87555L1.20047 5.04409L1.11516 5.31818ZM2.57562 5.31818L2.79622 5.14759L3.01722 5.31818L2.9315 5.04409L3.15088 4.87555L2.88031 4.87636L2.79581 4.59982L2.71253 4.87636L2.44156 4.87555L2.66053 5.04409L2.57562 5.31818ZM4.18641 5.31818L4.407 5.14759L4.62759 5.31818L4.54228 5.04409L4.76166 4.87555L4.48906 4.87636L4.40659 4.59982L4.32291 4.87636L4.05194 4.87555L4.27172 5.04409L4.18641 5.31818ZM5.78541 5.31818L6.00559 5.14759L6.22659 5.31818L6.1425 5.04409L6.36066 4.87555L6.08928 4.87636L6.00559 4.59982L5.92191 4.87636L5.65094 4.87555L5.87031 5.04409L5.78541 5.31818ZM7.38969 5.31818L7.61069 5.14759L7.83128 5.31818L7.74719 5.04409L7.96534 4.87555L7.69397 4.87636L7.61028 4.59982L7.527 4.87636L7.25563 4.87555L7.475 5.04409L7.38969 5.31818ZM1.89231 6.03655L2.11291 5.86636L2.3335 6.03655L2.24859 5.76409L2.46756 5.59473H2.19619L2.1125 5.31818L2.02922 5.59473H1.75784L1.97763 5.76409L1.89231 6.03655ZM3.35278 6.03655L3.57337 5.86636L3.79397 6.03655L3.70866 5.76409L3.92803 5.59473H3.65625L3.57297 5.31818L3.48928 5.59473H3.21791L3.43809 5.76409L3.35278 6.03655ZM4.96397 6.03655L5.18375 5.86636L5.40475 6.03655L5.31781 5.76409L5.53881 5.59473H5.26784L5.18375 5.31818L5.10006 5.59473H4.82869L5.04847 5.76409L4.96397 6.03655ZM6.56094 6.03655L6.78275 5.86636L7.00375 6.03655L6.91844 5.76409L7.13741 5.59473H6.86644L6.78234 5.31818L6.69906 5.59473H6.42769L6.64747 5.76409L6.56094 6.03655ZM8.16563 6.03655L8.38744 5.86636L8.60844 6.03655L8.52272 5.76409L8.74291 5.59473H8.47194L8.38744 5.31818L8.30375 5.59473H8.03237L8.25216 5.76409L8.16563 6.03655ZM9.07319 5.31818L9.29378 5.14759L9.51437 5.31818L9.42906 5.04409L9.64884 4.87555L9.37625 4.87636L9.29338 4.59982L9.20969 4.87636L8.9375 4.87555L9.1585 5.04409L9.07319 5.31818ZM1.11516 6.75532L1.33616 6.58636L1.55675 6.75532L1.47103 6.48082L1.69081 6.31227L1.41944 6.31309L1.33534 6.03655L1.25247 6.31309L0.980687 6.31227L1.20047 6.48082L1.11516 6.75532ZM2.57562 6.75532L2.79622 6.58636L3.01722 6.75532L2.9315 6.48082L3.15088 6.31227L2.88031 6.31309L2.79581 6.03655L2.71253 6.31309L2.44156 6.31227L2.66053 6.48082L2.57562 6.75532ZM4.18641 6.75532L4.407 6.58636L4.62759 6.75532L4.54228 6.48082L4.76166 6.31227L4.48906 6.31309L4.40659 6.03655L4.32291 6.31309L4.05194 6.31227L4.27172 6.48082L4.18641 6.75532ZM5.78541 6.75532L6.00559 6.58636L6.22659 6.75532L6.1425 6.48082L6.36066 6.31227L6.08928 6.31309L6.00559 6.03655L5.92191 6.31309L5.65094 6.31227L5.87031 6.48082L5.78541 6.75532ZM7.38969 6.75532L7.61069 6.58636L7.83128 6.75532L7.74719 6.48082L7.96534 6.31227L7.69397 6.31309L7.61028 6.03655L7.527 6.31309L7.25563 6.31227L7.475 6.48082L7.38969 6.75532ZM1.89231 7.47409L2.11291 7.30309L2.3335 7.47409L2.24859 7.19918L2.46756 7.03227H2.19619L2.1125 6.75532L2.02922 7.03227H1.75784L1.97763 7.19918L1.89231 7.47409ZM3.35278 7.47409L3.57337 7.30309L3.79397 7.47409L3.70866 7.19918L3.92803 7.03227H3.65625L3.57297 6.75532L3.48928 7.03227H3.21791L3.43809 7.19918L3.35278 7.47409ZM4.96397 7.47409L5.18375 7.30309L5.40475 7.47409L5.31781 7.19918L5.53881 7.03227H5.26784L5.18375 6.75532L5.10006 7.03227H4.82869L5.04847 7.19918L4.96397 7.47409ZM6.56094 7.47409L6.78275 7.30309L7.00375 7.47409L6.91844 7.19918L7.13741 7.03227H6.86644L6.78234 6.75532L6.69906 7.03227H6.42769L6.64747 7.19918L6.56094 7.47409ZM8.16563 7.47409L8.38744 7.30309L8.60844 7.47409L8.52272 7.19918L8.74291 7.03227H8.47194L8.38744 6.75532L8.30375 7.03227H8.03237L8.25216 7.19918L8.16563 7.47409ZM9.07319 6.75532L9.29378 6.58636L9.51437 6.75532L9.42906 6.48082L9.64884 6.31227L9.37625 6.31309L9.29338 6.03655L9.20969 6.31309L8.9375 6.31227L9.1585 6.48082L9.07319 6.75532Z" fill="white"/>
</svg>
