<svg width="30" height="26" viewBox="0 0 30 26" fill="none" xmlns="http://www.w3.org/2000/svg">
<g filter="url(#filter0_d_1300_946)">
<path d="M22.8758 5.77415C21.435 5.10248 19.875 4.61498 18.25 4.33331C18.2214 4.33372 18.1941 4.3454 18.1741 4.36581C17.9791 4.72331 17.7516 5.18915 17.6 5.54665C15.8764 5.28681 14.1236 5.28681 12.4 5.54665C12.2483 5.17831 12.0208 4.72331 11.815 4.36581C11.8041 4.34415 11.7716 4.33331 11.7391 4.33331C10.1141 4.61498 8.56496 5.10248 7.1133 5.77415C7.10246 5.77415 7.09163 5.78498 7.0808 5.79581C4.13413 10.205 3.32163 14.495 3.72246 18.7416C3.72246 18.7633 3.7333 18.785 3.75496 18.7958C5.70496 20.2258 7.57913 21.0925 9.43163 21.6666C9.46413 21.6775 9.49663 21.6666 9.50746 21.645C9.9408 21.0491 10.3308 20.4208 10.6666 19.76C10.6883 19.7166 10.6666 19.6733 10.6233 19.6625C10.0058 19.4241 9.4208 19.1425 8.84663 18.8175C8.8033 18.7958 8.8033 18.7308 8.8358 18.6983C8.95496 18.6116 9.07413 18.5141 9.1933 18.4275C9.21496 18.4058 9.24746 18.4058 9.26913 18.4166C12.9958 20.1175 17.015 20.1175 20.6983 18.4166C20.72 18.4058 20.7525 18.4058 20.7741 18.4275C20.8933 18.525 21.0125 18.6116 21.1316 18.7091C21.175 18.7416 21.175 18.8066 21.1208 18.8283C20.5575 19.1641 19.9616 19.435 19.3441 19.6733C19.3008 19.6841 19.29 19.7383 19.3008 19.7708C19.6475 20.4316 20.0375 21.06 20.46 21.6558C20.4925 21.6666 20.525 21.6775 20.5575 21.6666C22.4208 21.0925 24.295 20.2258 26.245 18.7958C26.2666 18.785 26.2775 18.7633 26.2775 18.7416C26.7541 13.8341 25.4866 9.57665 22.9191 5.79581C22.9083 5.78498 22.8975 5.77415 22.8758 5.77415ZM11.23 16.1525C10.1141 16.1525 9.18246 15.1233 9.18246 13.8558C9.18246 12.5883 10.0925 11.5591 11.23 11.5591C12.3783 11.5591 13.2883 12.5991 13.2775 13.8558C13.2775 15.1233 12.3675 16.1525 11.23 16.1525ZM18.7808 16.1525C17.665 16.1525 16.7333 15.1233 16.7333 13.8558C16.7333 12.5883 17.6433 11.5591 18.7808 11.5591C19.9291 11.5591 20.8391 12.5991 20.8283 13.8558C20.8283 15.1233 19.9291 16.1525 18.7808 16.1525Z" fill="#24272E"/>
</g>
<defs>
<filter id="filter0_d_1300_946" x="-1" y="-3" width="32" height="32" filterUnits="userSpaceOnUse" color-interpolation-filters="sRGB">
<feFlood flood-opacity="0" result="BackgroundImageFix"/>
<feColorMatrix in="SourceAlpha" type="matrix" values="0 0 0 0 0 0 0 0 0 0 0 0 0 0 0 0 0 0 127 0" result="hardAlpha"/>
<feOffset/>
<feGaussianBlur stdDeviation="1.5"/>
<feComposite in2="hardAlpha" operator="out"/>
<feColorMatrix type="matrix" values="0 0 0 0 0.960784 0 0 0 0 0.960784 0 0 0 0 0.960784 0 0 0 0.25 0"/>
<feBlend mode="normal" in2="BackgroundImageFix" result="effect1_dropShadow_1300_946"/>
<feBlend mode="normal" in="SourceGraphic" in2="effect1_dropShadow_1300_946" result="shape"/>
</filter>
</defs>
</svg>
