<svg width="26" height="18" viewBox="0 0 26 18" fill="none" xmlns="http://www.w3.org/2000/svg">
<path d="M26 13.5C26 15.9852 24.6297 18 21.9375 18H4.0625C1.37028 18 0 15.9852 0 13.5V4.5C0 2.01477 1.37028 0 4.0625 0H21.9375C24.6297 0 26 2.01477 26 4.5V13.5Z" fill="#128807"/>
<path d="M23.2131 9.32318L13.0609 16.5068L2.90834 9.32318L13.0609 2.13955L23.2131 9.32318Z" fill="#F9CB38"/>
<path fill-rule="evenodd" clip-rule="evenodd" d="M17.0666 10.5742C16.6042 12.1561 15.1576 13.3605 13.5196 13.5241C11.3311 13.7446 9.41647 12.3439 8.95091 10.1786C8.8131 9.54228 8.83066 8.88179 9.00209 8.25382C9.06588 8.18427 9.15403 8.1675 9.24178 8.15523C9.88182 8.06515 10.5289 8.03679 11.1743 8.07055C11.8629 8.10982 12.5458 8.20595 13.2096 8.39495C13.8909 8.58927 14.5507 8.84291 15.1734 9.18C15.6422 9.43056 16.0899 9.71925 16.512 10.0432C16.655 10.1549 16.8009 10.2645 16.9382 10.3835C16.9995 10.4367 17.0479 10.494 17.0666 10.5742Z" fill="#002776"/>
<path fill-rule="evenodd" clip-rule="evenodd" d="M9.23163 7.61359C9.75609 6.43336 10.6405 5.6475 11.8629 5.2785C14.3248 4.53518 16.8504 6.17359 17.2165 8.72877C17.2733 9.12354 17.2758 9.51955 17.2157 9.91514C17.1535 9.93845 17.1072 9.90532 17.0645 9.86973C16.6184 9.50259 16.1423 9.17389 15.6414 8.88709C15.2558 8.66668 14.855 8.47419 14.4422 8.31109C14.3691 8.28205 14.2773 8.26691 14.2521 8.16832C14.2785 8.12086 14.3118 8.07955 14.3516 8.04109C14.3658 8.02636 14.3865 8.01204 14.3674 7.9875C14.3609 7.97973 14.3475 7.97973 14.3362 7.98095C14.3057 7.98423 14.3098 8.0055 14.311 8.028C14.3134 8.10123 14.2712 8.14827 14.2155 8.18591C14.1168 8.20841 14.0221 8.17854 13.9421 8.13559C13.713 8.0145 13.4595 7.97318 13.2169 7.90568C12.8387 7.80218 12.4503 7.74368 12.0628 7.68273C11.7535 7.63309 11.4421 7.59732 11.1296 7.57555C10.8453 7.5555 10.5556 7.55836 10.2692 7.578C9.95678 7.60009 9.64356 7.62218 9.33278 7.65982C9.31328 7.66284 9.29333 7.66007 9.27537 7.65187C9.25741 7.64366 9.24221 7.63036 9.23163 7.61359Z" fill="#002776"/>
<path fill-rule="evenodd" clip-rule="evenodd" d="M14.2553 8.14295C14.2537 8.19286 14.298 8.18632 14.3248 8.19695C15.3739 8.60785 16.3495 9.18818 17.2132 9.91514C17.1884 10.1396 17.1395 10.3606 17.0666 10.5742C16.5583 10.1495 16.0375 9.74496 15.4619 9.41441C13.6423 8.37082 11.6939 7.95723 9.61106 8.17895C9.40794 8.19982 9.20522 8.22886 9.00209 8.25382C9.0545 8.0325 9.12072 7.81404 9.23 7.61277C10.7506 7.40618 12.2448 7.52359 13.7109 7.98055C13.8929 8.03741 14.0664 8.12905 14.2606 8.14623L14.2553 8.14295Z" fill="#FEFEFE"/>
<path fill-rule="evenodd" clip-rule="evenodd" d="M16.1484 10.7795C16.0262 10.7665 16.159 10.9174 16.0355 10.9141C15.9278 10.9125 15.9222 10.8258 15.8693 10.7775C15.91 10.735 15.9819 10.7264 16.0046 10.6601C16.0201 10.73 16.0855 10.7448 16.1484 10.7795Z" fill="#D9DFEA"/>
<path fill-rule="evenodd" clip-rule="evenodd" d="M11.5351 11.5364C11.4201 11.5499 11.5164 11.6759 11.4201 11.6779C11.323 11.68 11.273 11.6075 11.2535 11.5327C11.2466 11.5114 11.3401 11.464 11.386 11.4288C11.3917 11.5028 11.468 11.4995 11.5351 11.5364Z" fill="#E9ECF3"/>
<path fill-rule="evenodd" clip-rule="evenodd" d="M13.0569 11.3085C12.8972 11.4124 13.026 11.1776 12.9322 11.2005C12.9626 11.1514 13.0487 11.1629 13.0544 11.0876C13.0951 11.1301 13.1296 11.1792 13.1942 11.1882C13.102 11.1755 13.2023 11.3817 13.0569 11.3085Z" fill="#EDEFF5"/>
<path fill-rule="evenodd" clip-rule="evenodd" d="M9.75813 8.55205C9.71994 8.62527 9.69109 8.70709 9.57531 8.658C9.516 8.63305 9.57938 8.55123 9.50828 8.54346L9.63991 8.42686L9.66834 8.48373C9.67891 8.53241 9.77519 8.46777 9.75813 8.55205Z" fill="#F0F2F6"/>
<path fill-rule="evenodd" clip-rule="evenodd" d="M10.1266 10.3295C10.0661 10.3488 10.1095 10.5091 9.97953 10.4392C9.96653 10.4326 9.90966 10.4641 9.92022 10.4457C9.95434 10.3786 9.87797 10.3459 9.88975 10.2923C9.96084 10.3234 9.95678 10.1925 10.0295 10.2277C10.0348 10.2318 10.0348 10.2481 10.0384 10.2588C10.0462 10.3095 10.1445 10.2461 10.1266 10.3295Z" fill="#ECEFF4"/>
<path fill-rule="evenodd" clip-rule="evenodd" d="M9.48756 10.8033C9.36284 10.847 9.45588 10.6953 9.38438 10.6965C9.41769 10.6683 9.45506 10.6155 9.48838 10.6175C9.52819 10.6196 9.56475 10.6691 9.60131 10.6973C9.54688 10.7157 9.60416 10.8642 9.48756 10.8033Z" fill="#D9DFEA"/>
<path fill-rule="evenodd" clip-rule="evenodd" d="M14.3081 12.251C14.1761 12.3116 14.3045 12.1328 14.2163 12.1561C14.2074 12.0878 14.3175 12.1291 14.3037 12.0571L14.4227 12.1533C14.3743 12.1754 14.4227 12.3145 14.3081 12.251Z" fill="#D8DEEA"/>
<path fill-rule="evenodd" clip-rule="evenodd" d="M15.1531 12.1525C15.0438 12.1983 15.1109 12.0502 15.052 12.0355C15.0918 12.0097 15.1336 11.9823 15.1726 11.9557C15.1759 12.0162 15.2583 11.9941 15.2673 12.0477C15.2059 12.0514 15.2697 12.1848 15.1531 12.1525ZM15.9128 11.6018C15.7885 11.6652 15.8803 11.4987 15.8092 11.5057C15.8234 11.4525 15.9051 11.4725 15.91 11.4112L16.0266 11.4991C15.9555 11.4971 16.0428 11.6726 15.9128 11.6018Z" fill="#DCE1EC"/>
<path fill-rule="evenodd" clip-rule="evenodd" d="M10.8806 10.838C10.7506 10.9121 10.8355 10.7464 10.7754 10.7431C10.7815 10.6822 10.8733 10.7084 10.8773 10.6437C10.8895 10.7035 10.9683 10.6863 10.9854 10.7399C10.9078 10.7284 11.0183 10.9162 10.8806 10.838Z" fill="#D4DAE7"/>
<path fill-rule="evenodd" clip-rule="evenodd" d="M11.4075 9.59523C11.334 9.59032 11.4282 9.47373 11.338 9.48109C11.3535 9.41564 11.4229 9.42914 11.4611 9.39518C11.4806 9.4365 11.5359 9.44591 11.5387 9.50523C11.5452 9.61364 11.4497 9.55759 11.4075 9.59523Z" fill="#F2F4F7"/>
<path fill-rule="evenodd" clip-rule="evenodd" d="M13.5484 10.4592C13.4359 10.5243 13.4952 10.379 13.4432 10.3631L13.5484 10.2735C13.5509 10.334 13.6658 10.3205 13.6333 10.3672C13.6138 10.395 13.6768 10.5222 13.5484 10.4592Z" fill="#E6E9F1"/>
<path fill-rule="evenodd" clip-rule="evenodd" d="M13.0447 10.0947C12.9163 10.1078 13.0487 9.99041 12.9655 9.99327C12.998 9.96259 13.0292 9.91023 13.0658 9.90695C13.0975 9.90368 13.1341 9.95564 13.1686 9.98427C13.1235 10.028 13.1304 10.141 13.0447 10.0947Z" fill="#EAEDF3"/>
<path fill-rule="evenodd" clip-rule="evenodd" d="M16.1614 11.0495C16.1878 11.1199 16.2398 11.1293 16.2805 11.1543C16.239 11.2013 16.2228 11.2733 16.1367 11.2733C16.0485 11.2741 16.1082 11.2066 16.0883 11.1751C16.0392 11.0966 16.2208 11.1629 16.1614 11.0495Z" fill="#E4E8F0"/>
<path fill-rule="evenodd" clip-rule="evenodd" d="M15.2417 12.4748C15.2108 12.521 15.2319 12.5652 15.1499 12.5669C15.056 12.5685 15.0861 12.4994 15.082 12.4781C15.0743 12.4429 15.1279 12.4094 15.1588 12.4163C15.1856 12.4212 15.2376 12.4364 15.2417 12.4748Z" fill="#CED5E4"/>
<path fill-rule="evenodd" clip-rule="evenodd" d="M10.8526 11.1641C10.7855 11.1719 10.8412 11.2602 10.7563 11.2574C10.6787 11.2549 10.6901 11.2021 10.6815 11.1702C10.6681 11.1256 10.7335 11.1269 10.7482 11.0933C10.779 11.115 10.8103 11.1367 10.8526 11.1641Z" fill="#DAE0EB"/>
<path fill-rule="evenodd" clip-rule="evenodd" d="M15.0597 11.6313C15.0884 11.61 15.1178 11.5893 15.1478 11.5691C15.1503 11.6145 15.2474 11.5883 15.2149 11.6464C15.2015 11.6697 15.2344 11.7335 15.1503 11.7278C15.0747 11.7225 15.0926 11.6693 15.0597 11.6313Z" fill="#D8DEE9"/>
<path fill-rule="evenodd" clip-rule="evenodd" d="M14.7509 11.7716C14.7363 11.8522 14.6908 11.8653 14.6408 11.8747C14.5559 11.889 14.6197 11.8248 14.6059 11.8002C14.5702 11.7389 14.6603 11.7507 14.6709 11.7106C14.6945 11.7417 14.7485 11.7409 14.7509 11.7716Z" fill="#CBD2E3"/>
<path fill-rule="evenodd" clip-rule="evenodd" d="M14.2756 9.11864C14.2472 9.13214 14.285 9.20045 14.224 9.18082C14.1777 9.16486 14.1208 9.14277 14.1249 9.0855C14.1265 9.06341 14.1818 9.045 14.2127 9.02577C14.2179 9.06709 14.3057 9.05359 14.2756 9.11864Z" fill="#D1D8E6"/>
<path fill-rule="evenodd" clip-rule="evenodd" d="M16.5746 10.9129C16.4982 10.9432 16.5327 10.8798 16.5193 10.8614C16.4682 10.7914 16.5693 10.8016 16.5746 10.7599C16.6059 10.7808 16.6668 10.8045 16.6644 10.8225C16.6626 10.8459 16.6526 10.8679 16.6361 10.8844C16.6196 10.901 16.5978 10.9111 16.5746 10.9129Z" fill="#DADFEA"/>
<path fill-rule="evenodd" clip-rule="evenodd" d="M12.6466 10.2886C12.6466 10.3361 12.7416 10.3173 12.7095 10.3766C12.6965 10.4007 12.7242 10.4654 12.6583 10.4519C12.6084 10.4416 12.558 10.4122 12.5564 10.3623C12.5564 10.339 12.6141 10.314 12.6466 10.2886Z" fill="#CAD2E2"/>
<path fill-rule="evenodd" clip-rule="evenodd" d="M13.9466 11.7687C13.9092 11.7511 13.9076 11.7016 13.91 11.6779C13.9141 11.6464 13.9559 11.6039 13.9917 11.621C14.0136 11.6317 14.0758 11.6255 14.0607 11.6828C14.0469 11.7376 13.9925 11.7454 13.9466 11.7687Z" fill="#D0D7E5"/>
<path fill-rule="evenodd" clip-rule="evenodd" d="M15.5188 11.6967C15.5204 11.6963 15.5488 11.6566 15.5809 11.6558C15.6041 11.655 15.6276 11.7033 15.6524 11.7303C15.6191 11.7397 15.6475 11.8015 15.5817 11.8006C15.5224 11.7994 15.5224 11.7724 15.5188 11.6967Z" fill="#EFF2F6"/>
<path fill-rule="evenodd" clip-rule="evenodd" d="M12.9049 10.6609C12.894 10.7051 12.894 10.7325 12.855 10.7317C12.8152 10.7309 12.7957 10.7161 12.7965 10.6752C12.7965 10.6429 12.8176 10.6204 12.8416 10.6225C12.8692 10.6245 12.9086 10.6323 12.9049 10.6609Z" fill="#CCD4E3"/>
<path fill-rule="evenodd" clip-rule="evenodd" d="M10.4138 10.0244C10.4333 10.0456 10.4557 10.0624 10.4642 10.0841C10.4715 10.1021 10.4601 10.1295 10.4349 10.1324C10.4069 10.1348 10.3768 10.134 10.3679 10.0988C10.3598 10.0645 10.3894 10.0522 10.4138 10.0244Z" fill="#E0E5EE"/>
<path fill-rule="evenodd" clip-rule="evenodd" d="M10.1266 10.3295C10.1156 10.2825 10.0433 10.3128 10.0384 10.2588C10.0539 10.2997 10.1745 10.208 10.1266 10.3295Z" fill="#7085B1"/>
<path fill-rule="evenodd" clip-rule="evenodd" d="M9.75813 8.55205C9.74919 8.50173 9.67241 8.54141 9.66834 8.48373C9.68987 8.51809 9.79875 8.43668 9.75813 8.55205Z" fill="#5C75A7"/>
<path fill-rule="evenodd" clip-rule="evenodd" d="M14.2634 8.14745C14.2712 8.11636 14.2959 8.06564 14.2862 8.05623C14.1538 7.93759 14.3305 7.91755 14.3569 7.89341C14.4052 7.84636 14.3975 8.04477 14.5251 7.91918C14.4564 8.07259 14.3646 8.11677 14.259 8.14295L14.2634 8.14745Z" fill="#E7EAF2"/>
<path fill-rule="evenodd" clip-rule="evenodd" d="M10.3476 8.02023C10.2184 8.00755 10.3334 7.83818 10.3053 7.74C10.2704 7.61318 10.3622 7.61482 10.4516 7.61441C10.5901 7.61359 10.6685 7.6725 10.6685 7.81977C10.6681 7.96459 10.6015 8.02186 10.3476 8.02023Z" fill="#15A24A"/>
<path fill-rule="evenodd" clip-rule="evenodd" d="M15.2835 8.83759C15.2551 8.92514 15.1499 8.97995 15.132 9.08795C15.1304 9.10227 15.0898 9.09941 15.082 9.05768C15.0495 8.86214 15.0479 8.86255 14.9045 8.96727C14.8931 8.97586 14.8732 8.98364 14.8622 8.97995C14.8411 8.97055 14.8326 8.94927 14.8452 8.92514C14.8927 8.83186 14.9374 8.73614 14.9906 8.64573C15.0264 8.586 15.0698 8.63591 15.1048 8.65309C15.1816 8.69114 15.2762 8.71282 15.2835 8.83759Z" fill="#13A248"/>
<path fill-rule="evenodd" clip-rule="evenodd" d="M15.6471 9.15586C15.5724 9.18614 15.5362 9.12927 15.4883 9.10882C15.4558 9.09491 15.4253 9.08182 15.4034 9.11823C15.3794 9.15668 15.4034 9.17877 15.4363 9.19595C15.4615 9.20864 15.4883 9.21845 15.507 9.2385C15.5399 9.27327 15.6431 9.26386 15.6012 9.33791C15.5683 9.39682 15.5131 9.32809 15.4765 9.30641C15.4135 9.26755 15.2888 9.24627 15.3022 9.17877C15.3229 9.07036 15.3843 8.95255 15.4659 8.87809C15.5313 8.81836 15.6037 8.93127 15.6772 8.9595C15.7089 8.97136 15.7629 8.982 15.7536 9.03232C15.7446 9.08427 15.7064 9.054 15.6772 9.04705C15.6085 9.03109 15.5419 8.91409 15.4879 8.99509C15.4554 9.04336 15.589 9.06341 15.6313 9.11659C15.6378 9.12436 15.6394 9.135 15.6471 9.15586ZM16.5226 9.73432C16.5348 9.83004 16.4962 9.89509 16.3967 9.87873C16.2935 9.86154 16.2151 9.79814 16.1972 9.68441C16.1956 9.67295 16.2094 9.64964 16.2208 9.64636C16.2273 9.6442 16.2342 9.64351 16.2411 9.64434C16.2479 9.64517 16.2545 9.6475 16.2603 9.65117C16.2662 9.65484 16.2712 9.65975 16.2749 9.66556C16.2787 9.67138 16.2811 9.67795 16.2821 9.68482C16.2951 9.76295 16.3357 9.79773 16.4174 9.79936C16.4332 9.67132 16.2037 9.61282 16.3357 9.47986C16.4019 9.41318 16.4828 9.46841 16.5405 9.522C16.5937 9.57068 16.6587 9.62427 16.5616 9.69382C16.5478 9.68645 16.5291 9.67459 16.5189 9.68277C16.4982 9.69668 16.5185 9.71673 16.5226 9.73432Z" fill="#11A147"/>
<path fill-rule="evenodd" clip-rule="evenodd" d="M13.7166 8.51605C13.6683 8.48864 13.6707 8.46245 13.6784 8.43382C13.6939 8.37286 13.6626 8.34095 13.6073 8.32377C13.5521 8.30577 13.5094 8.30823 13.4944 8.37777C13.4891 8.40886 13.4729 8.43055 13.4392 8.41909C13.4002 8.40477 13.4197 8.37286 13.427 8.34955C13.4424 8.29595 13.4562 8.24195 13.4806 8.19082C13.5025 8.13968 13.4871 8.046 13.5671 8.05214C13.652 8.05827 13.7438 8.07873 13.8084 8.1495C13.8373 8.18059 13.8491 8.23418 13.8255 8.2575C13.7568 8.32868 13.7625 8.42932 13.7166 8.51605Z" fill="#0FA046"/>
<path fill-rule="evenodd" clip-rule="evenodd" d="M11.2097 7.99527C11.0784 8.04518 10.9748 8.01614 10.8737 8.01818C10.8278 8.01941 10.8237 7.98464 10.8237 7.94945C10.8264 7.91045 10.8275 7.87145 10.827 7.83245C10.8318 7.61686 10.9078 7.56164 11.1182 7.62177C11.1418 7.62832 11.1642 7.63241 11.1658 7.659C11.1658 7.69582 11.1394 7.70236 11.1069 7.70155C11.1023 7.70045 11.0971 7.70005 11.0914 7.70032C11.0285 7.71586 10.9155 7.64427 10.9135 7.73918C10.9111 7.812 11.0342 7.76045 11.0971 7.785C11.1055 7.78909 11.1164 7.79645 11.1296 7.80709C11.0898 7.8795 11.0236 7.839 10.9724 7.84759C10.9419 7.8525 10.9021 7.839 10.8977 7.88891C10.892 7.94782 10.9326 7.94495 10.9724 7.94905C11.0403 7.95723 11.1138 7.93145 11.2097 7.99527Z" fill="#0B9F43"/>
<path fill-rule="evenodd" clip-rule="evenodd" d="M10.1311 8.02636C10.0604 8.01082 10.0701 7.96991 10.0579 7.94127C10.0368 7.8885 9.99497 7.8885 9.94906 7.89218C9.89666 7.89709 9.86822 7.91755 9.87269 7.97605C9.87594 8.00468 9.88731 8.05091 9.8345 8.04436C9.789 8.03864 9.802 7.99404 9.79956 7.96377C9.7955 7.91427 9.79062 7.86354 9.7955 7.81445C9.802 7.75964 9.75 7.67577 9.82841 7.65614C9.90925 7.63486 10.0027 7.61973 10.0868 7.66023C10.1233 7.67782 10.1522 7.72077 10.1388 7.75555C10.1079 7.84309 10.1323 7.93186 10.1311 8.02636Z" fill="#079D3F"/>
<path fill-rule="evenodd" clip-rule="evenodd" d="M9.27347 7.88727C9.28647 7.77641 9.33481 7.68641 9.45547 7.6905C9.57125 7.69418 9.633 7.77518 9.633 7.89177C9.633 8.00755 9.57937 8.08732 9.45709 8.0865C9.33278 8.08568 9.29053 7.99486 9.27347 7.88727Z" fill="#15A24A"/>
<path fill-rule="evenodd" clip-rule="evenodd" d="M17.0072 9.96546C16.9959 10.0755 16.9418 10.1585 16.8171 10.1696C16.7022 10.179 16.6412 10.1127 16.6323 10.0039C16.6221 9.89386 16.7294 9.78873 16.8387 9.78955C16.9345 9.79036 17.0048 9.86032 17.0072 9.96546Z" fill="#11A147"/>
<path fill-rule="evenodd" clip-rule="evenodd" d="M14.7266 8.685C14.8184 8.75945 14.7071 8.80855 14.703 8.87114C14.6266 8.83555 14.5312 8.84986 14.4694 8.78236C14.4036 8.71036 14.4158 8.62895 14.4588 8.54959C14.5064 8.46573 14.5795 8.42973 14.6693 8.46164C14.7513 8.49109 14.8127 8.54673 14.7729 8.65145C14.7099 8.66291 14.6583 8.57945 14.5697 8.6355C14.6287 8.66291 14.6993 8.62486 14.7266 8.685Z" fill="#0C9F43"/>
<path fill-rule="evenodd" clip-rule="evenodd" d="M12.5166 7.84227C12.4629 7.90568 12.4235 7.88114 12.3866 7.88195C12.3508 7.88195 12.3126 7.85209 12.2683 7.88932C12.3082 7.95477 12.4044 7.91264 12.4418 7.97768C12.4365 7.98709 12.4341 7.99977 12.4272 8.00632C12.3736 8.04886 12.2878 7.94577 12.2545 8.03086C12.2241 8.10409 12.3041 8.07873 12.3386 8.091C12.3776 8.10655 12.426 8.10082 12.4731 8.154C12.3638 8.20227 12.2334 8.17977 12.1883 8.12659C12.1172 8.04273 12.1672 7.89382 12.2212 7.81936C12.285 7.73141 12.4016 7.81732 12.5166 7.84227Z" fill="#19A44D"/>
<path fill-rule="evenodd" clip-rule="evenodd" d="M13.2092 8.19818C13.117 8.18836 13.0122 8.12291 12.9858 8.27591C12.985 8.28082 12.9529 8.28777 12.9431 8.28123C12.9322 8.27509 12.9261 8.25218 12.9281 8.23909C12.9521 8.14214 12.9642 8.03823 13.0069 7.95109C13.0565 7.85291 13.1406 7.93596 13.21 7.94536C13.2929 7.95641 13.3388 8.00714 13.3299 8.09509C13.3217 8.17077 13.2649 8.19123 13.2092 8.19818Z" fill="#0D9F44"/>
<path fill-rule="evenodd" clip-rule="evenodd" d="M14.3081 8.43259C14.2992 8.55573 14.2391 8.64082 14.1168 8.6445C14.0075 8.64859 13.9462 8.57127 13.9486 8.46164C13.9518 8.343 14.0091 8.25709 14.1363 8.25341C14.2529 8.24932 14.298 8.32827 14.3081 8.43259Z" fill="#0FA046"/>
<path fill-rule="evenodd" clip-rule="evenodd" d="M11.5696 7.98832C11.5562 8.01736 11.5452 8.05868 11.5066 8.04927C11.4396 8.03332 11.4697 7.96827 11.4534 7.92573C11.4038 7.87705 11.4168 7.94414 11.4014 7.95641C11.3957 7.98668 11.4095 8.03291 11.3689 8.03905C11.3189 8.04518 11.3307 7.99691 11.3319 7.96827C11.336 7.90855 11.3368 7.84595 11.3531 7.78868C11.3673 7.73959 11.3157 7.64918 11.4128 7.64836C11.4985 7.64795 11.4798 7.73591 11.4908 7.78868C11.5022 7.84923 11.5082 7.875 11.5574 7.81486C11.6082 7.80136 11.6187 7.83859 11.6305 7.87459C11.637 7.92695 11.6139 7.96336 11.5696 7.98832Z" fill="#0EA044"/>
<path fill-rule="evenodd" clip-rule="evenodd" d="M15.8966 9.49091C15.9266 9.49091 15.9571 9.531 15.9863 9.49664C16.0087 9.47086 15.9888 9.4455 15.9689 9.42464C15.9537 9.40909 15.9391 9.393 15.925 9.37636C15.8836 9.32605 15.8255 9.27777 15.8828 9.20495C15.9348 9.13827 15.9953 9.15464 16.0554 9.19677C16.0664 9.21805 16.0627 9.2385 16.0513 9.25773C16.0071 9.32768 16.0895 9.37023 16.0879 9.42995C16.1005 9.486 16.1086 9.54245 16.0473 9.57477C15.9709 9.61568 15.912 9.57804 15.8559 9.52895C15.8498 9.49664 15.8616 9.48068 15.8966 9.49091Z" fill="#10A146"/>
<path fill-rule="evenodd" clip-rule="evenodd" d="M14.7266 8.685C14.6953 8.70709 14.6323 8.6355 14.6343 8.6895C14.6384 8.78523 14.5909 8.77664 14.5466 8.74841C14.4869 8.71118 14.4836 8.64736 14.5214 8.58845C14.558 8.53077 14.6096 8.49723 14.6721 8.54427C14.7103 8.5725 14.74 8.61505 14.7729 8.65145L14.7266 8.685Z" fill="#ECF7F0"/>
<path fill-rule="evenodd" clip-rule="evenodd" d="M11.5964 7.89136C11.5847 7.86603 11.5717 7.84131 11.5574 7.81732C11.5716 7.78091 11.5846 7.74409 11.6017 7.70891C11.6171 7.67577 11.6439 7.65736 11.6817 7.66964C11.724 7.68395 11.7207 7.71668 11.7183 7.75105C11.7093 7.85114 11.7011 7.95123 11.6935 8.05132C11.6342 8.08936 11.6192 8.05459 11.6094 8.00305C11.6021 7.96582 11.6212 7.92573 11.5964 7.89136Z" fill="#17A34C"/>
<path fill-rule="evenodd" clip-rule="evenodd" d="M16.0879 9.42995C16.0513 9.39232 16.0136 9.35632 15.9794 9.31623C15.9396 9.26877 15.9551 9.23973 16.0144 9.23195C16.1001 9.25118 16.1525 9.29291 16.1273 9.39191C16.1154 9.40445 16.1014 9.41741 16.0879 9.42995Z" fill="#D7EFE0"/>
<path fill-rule="evenodd" clip-rule="evenodd" d="M16.1273 9.39191C16.0879 9.34036 16.0773 9.26673 16.0144 9.23195L16.0554 9.19677C16.1237 9.24545 16.2496 9.27286 16.1273 9.39191Z" fill="#2BAB5B"/>
<path fill-rule="evenodd" clip-rule="evenodd" d="M16.5226 9.73432C16.5173 9.73104 16.5104 9.72941 16.508 9.72491C16.4755 9.66436 16.3678 9.60995 16.4044 9.55636C16.4503 9.49173 16.4982 9.56823 16.5234 9.62345C16.5348 9.64677 16.5486 9.66968 16.5616 9.69382C16.5481 9.70745 16.5351 9.72095 16.5226 9.73432Z" fill="#E6F5EC"/>
<path fill-rule="evenodd" clip-rule="evenodd" d="M15.8966 9.49091C15.8841 9.50373 15.8706 9.51614 15.8559 9.52895C15.8389 9.51668 15.8153 9.5085 15.8043 9.49091C15.7836 9.45123 15.7243 9.39845 15.793 9.36736C15.8507 9.33955 15.8507 9.41359 15.8693 9.44959C15.8771 9.46473 15.8868 9.47741 15.8966 9.49091Z" fill="#29AA59"/>
<path fill-rule="evenodd" clip-rule="evenodd" d="M11.5964 7.89136C11.6557 7.91468 11.6244 7.96459 11.6252 8.00182C11.6285 8.05295 11.646 8.06932 11.6935 8.05132C11.5944 8.14786 11.6074 8.01982 11.5692 7.99118C11.5793 7.95723 11.5871 7.92409 11.5964 7.89136Z" fill="#DDF1E4"/>
<path fill-rule="evenodd" clip-rule="evenodd" d="M11.3994 7.95682V7.82509C11.4554 7.84309 11.4571 7.88277 11.4514 7.92614L11.3994 7.95682Z" fill="#6FC690"/>
<path fill-rule="evenodd" clip-rule="evenodd" d="M10.387 7.82182C10.3927 7.76209 10.3643 7.68436 10.4654 7.69091C10.5393 7.69541 10.593 7.72527 10.597 7.81036C10.6011 7.902 10.5479 7.93923 10.4638 7.94536C10.3569 7.95395 10.4004 7.86927 10.387 7.82182Z" fill="#F5FBF7"/>
<path fill-rule="evenodd" clip-rule="evenodd" d="M15.0719 8.72182C15.1141 8.74514 15.1787 8.74964 15.1925 8.81264C15.1994 8.84536 15.1714 8.86705 15.1426 8.85764C15.0889 8.84127 15.0178 8.84045 15.0105 8.76436C15.0085 8.74227 15.0321 8.71445 15.0719 8.72182Z" fill="#EFF8F3"/>
<path fill-rule="evenodd" clip-rule="evenodd" d="M13.7544 8.21864C13.7434 8.26118 13.7138 8.27591 13.6797 8.26323C13.6337 8.24645 13.5598 8.26486 13.559 8.18386C13.5574 8.14173 13.5858 8.12905 13.624 8.14173C13.6744 8.15809 13.7353 8.15605 13.7544 8.21864Z" fill="#DEF2E5"/>
<path fill-rule="evenodd" clip-rule="evenodd" d="M9.95922 7.71504C9.99903 7.71995 10.062 7.69868 10.0579 7.767C10.0539 7.82673 9.99375 7.81732 9.95069 7.81814C9.91616 7.81936 9.86659 7.83736 9.86334 7.77477C9.86091 7.70032 9.91859 7.72364 9.95922 7.71504Z" fill="#F3FAF5"/>
<path fill-rule="evenodd" clip-rule="evenodd" d="M9.44531 7.77191C9.51884 7.77682 9.55541 7.821 9.55825 7.89055C9.56231 7.95273 9.53184 8.00591 9.46847 8.01164C9.39534 8.01859 9.36244 7.96255 9.35837 7.89423C9.35431 7.83123 9.37869 7.78541 9.44531 7.77191Z" fill="#F3FAF6"/>
<path fill-rule="evenodd" clip-rule="evenodd" d="M16.9264 9.97977C16.9158 10.0477 16.8752 10.0955 16.7968 10.0955C16.7338 10.0947 16.7103 10.0485 16.7168 9.99245C16.7229 9.91636 16.768 9.86727 16.8447 9.8685C16.9053 9.87014 16.9288 9.91391 16.9264 9.97977Z" fill="#F9FCFA"/>
<path fill-rule="evenodd" clip-rule="evenodd" d="M13.1137 7.99691C13.1548 8.02227 13.2372 7.99609 13.249 8.07791C13.2527 8.109 13.2186 8.12496 13.1913 8.11882C13.1381 8.10695 13.0638 8.12618 13.0573 8.03986C13.0561 8.01327 13.0678 7.98464 13.1137 7.99691Z" fill="#E7F5EC"/>
<path fill-rule="evenodd" clip-rule="evenodd" d="M14.2269 8.44241C14.2192 8.51318 14.1846 8.56268 14.1135 8.56268C14.0437 8.5635 14.0189 8.51441 14.0221 8.44977C14.0278 8.37859 14.068 8.33114 14.1367 8.32827C14.2049 8.32582 14.2269 8.38064 14.2269 8.44241Z" fill="#F5FBF7"/>
</svg>
